HIERARCHY
ROOT Hips
{
    OFFSET 0.000000 0.000000 0.000000
    CHANNELS 6 Xposition Yposition Zposition Zrotation Yrotation Xrotation
    JOINT Chest
    {
        OFFSET 0.000000 1.634758 -0.000000
        CHANNELS 3 Zrotation Yrotation Xrotation
        JOINT Chest2
        {
            OFFSET 0.000000 2.197341 0.000000
            CHANNELS 3 Zrotation Yrotation Xrotation
            JOINT Neck
            {
                OFFSET 0.000000 0.961544 0.000000
                CHANNELS 3 Zrotation Yrotation Xrotation
                JOINT Head
                {
                    OFFSET 0.000000 0.632542 -0.032565
                    CHANNELS 3 Zrotation Yrotation Xrotation
                    End Site
                    {
                        OFFSET -0.000001 0.439502 2.922845
                    }
                }
            }
            JOINT LeftCollar
            {
                OFFSET 0.167536 0.778237 -0.168280
                CHANNELS 3 Zrotation Yrotation Xrotation
                JOINT LeftShoulder
                {
                    OFFSET 0.831514 -0.002900 0.006458
                    CHANNELS 3 Zrotation Yrotation Xrotation
                    JOINT LeftElbow
                    {
                        OFFSET 2.272872 -0.026639 0.059314
                        CHANNELS 3 Zrotation Yrotation Xrotation
                        JOINT LeftWrist
                        {
                            OFFSET 2.081982 -0.024402 0.054333
                            CHANNELS 3 Zrotation Yrotation Xrotation
                            JOINT LeftHandThumb1
                            {
                                OFFSET 0.218903 -0.128645 0.283837
                                CHANNELS 3 Zrotation Yrotation Xrotation
                                JOINT LeftHandThumb2
                                {
                                    OFFSET 0.137157 -0.025101 0.077902
                                    CHANNELS 3 Zrotation Yrotation Xrotation
                                    JOINT LeftHandThumb3
                                    {
                                        OFFSET 0.163592 -0.061323 0.054922
                                        CHANNELS 3 Zrotation Yrotation Xrotation
                                        End Site
                                        {
                                            OFFSET 0.242814 -0.064473 0.093387
                                        }
                                    }
                                }
                            }
                            JOINT LeftHandFore1
                            {
                                OFFSET 0.767340 -0.016076 0.196678
                                CHANNELS 3 Zrotation Yrotation Xrotation
                                JOINT LeftHandFore2
                                {
                                    OFFSET 0.194910 -0.087741 0.036151
                                    CHANNELS 3 Zrotation Yrotation Xrotation
                                    JOINT LeftHandFore3
                                    {
                                        OFFSET 0.092875 -0.089218 0.013319
                                        CHANNELS 3 Zrotation Yrotation Xrotation
                                        End Site
                                        {
                                            OFFSET 0.097281 -0.166262 0.016137
                                        }
                                    }
                                }
                            }
                            JOINT LeftHandMiddle1
                            {
                                OFFSET 0.709887 -0.008320 0.018526
                                CHANNELS 3 Zrotation Yrotation Xrotation
                                JOINT LeftHandMiddle2
                                {
                                    OFFSET 0.224654 -0.096229 0.018290
                                    CHANNELS 3 Zrotation Yrotation Xrotation
                                    JOINT LeftHandMiddle3
                                    {
                                        OFFSET 0.112279 -0.093619 0.003456
                                        CHANNELS 3 Zrotation Yrotation Xrotation
                                        End Site
                                        {
                                            OFFSET 0.124215 -0.200489 0.002258
                                        }
                                    }
                                }
                            }
                            JOINT LeftHandRing1
                            {
                                OFFSET 0.743817 -0.005823 -0.153668
                                CHANNELS 3 Zrotation Yrotation Xrotation
                                JOINT LeftHandRing2
                                {
                                    OFFSET 0.318812 -0.149696 -0.026139
                                    CHANNELS 3 Zrotation Yrotation Xrotation
                                    JOINT LeftHandRing3
                                    {
                                        OFFSET 0.098079 -0.093764 -0.013936
                                        CHANNELS 3 Zrotation Yrotation Xrotation
                                        End Site
                                        {
                                            OFFSET 0.052405 -0.107176 -0.013671
                                        }
                                    }
                                }
                            }
                            JOINT LeftHandLittle1
                            {
                                OFFSET 0.689408 -0.053302 -0.308304
                                CHANNELS 3 Zrotation Yrotation Xrotation
                                JOINT LeftHandLittle2
                                {
                                    OFFSET 0.175349 -0.075526 -0.040032
                                    CHANNELS 3 Zrotation Yrotation Xrotation
                                    JOINT LeftHandLittle3
                                    {
                                        OFFSET 0.079813 -0.085301 -0.029154
                                        CHANNELS 3 Zrotation Yrotation Xrotation
                                        End Site
                                        {
                                            OFFSET 0.098803 -0.155258 -0.049208
                                        }
                                    }
                                }
                            }
                        }
                    }
                }
            }
            JOINT RightCollar
            {
                OFFSET -0.167536 0.778237 -0.168280
                CHANNELS 3 Zrotation Yrotation Xrotation
                JOINT RightShoulder
                {
                    OFFSET -0.831514 -0.002900 0.006457
                    CHANNELS 3 Zrotation Yrotation Xrotation
                    JOINT RightElbow
                    {
                        OFFSET -2.272872 -0.026639 0.059313
                        CHANNELS 3 Zrotation Yrotation Xrotation
                        JOINT RightWrist
                        {
                            OFFSET -2.081982 -0.024402 0.054331
                            CHANNELS 3 Zrotation Yrotation Xrotation
                            JOINT RightHandThumb1
                            {
                                OFFSET -0.218911 -0.128571 0.283837
                                CHANNELS 3 Zrotation Yrotation Xrotation
                                JOINT RightHandThumb2
                                {
                                    OFFSET -0.137157 -0.025101 0.077902
                                    CHANNELS 3 Zrotation Yrotation Xrotation
                                    JOINT RightHandThumb3
                                    {
                                        OFFSET -0.167455 -0.054447 0.050337
                                        CHANNELS 3 Zrotation Yrotation Xrotation
                                        End Site
                                        {
                                            OFFSET -0.236691 -0.075431 0.100619
                                        }
                                    }
                                }
                            }
                            JOINT RightHandFore1
                            {
                                OFFSET -0.767344 -0.015991 0.196679
                                CHANNELS 3 Zrotation Yrotation Xrotation
                                JOINT RightHandFore2
                                {
                                    OFFSET -0.194933 -0.087698 0.036149
                                    CHANNELS 3 Zrotation Yrotation Xrotation
                                    JOINT RightHandFore3
                                    {
                                        OFFSET -0.090640 -0.087944 0.028502
                                        CHANNELS 3 Zrotation Yrotation Xrotation
                                        End Site
                                        {
                                            OFFSET -0.093835 -0.164335 0.039444
                                        }
                                    }
                                }
                            }
                            JOINT RightHandMiddle1
                            {
                                OFFSET -0.709887 -0.008302 0.018525
                                CHANNELS 3 Zrotation Yrotation Xrotation
                                JOINT RightHandMiddle2
                                {
                                    OFFSET -0.224640 -0.096249 0.018292
                                    CHANNELS 3 Zrotation Yrotation Xrotation
                                    JOINT RightHandMiddle3
                                    {
                                        OFFSET -0.111334 -0.092707 0.019863
                                        CHANNELS 3 Zrotation Yrotation Xrotation
                                        End Site
                                        {
                                            OFFSET -0.122378 -0.198673 0.034395
                                        }
                                    }
                                }
                            }
                            JOINT RightHandRing1
                            {
                                OFFSET -0.743819 -0.005785 -0.153669
                                CHANNELS 3 Zrotation Yrotation Xrotation
                                JOINT RightHandRing2
                                {
                                    OFFSET -0.318823 -0.149673 -0.026138
                                    CHANNELS 3 Zrotation Yrotation Xrotation
                                    JOINT RightHandRing3
                                    {
                                        OFFSET -0.098490 -0.094126 -0.006716
                                        CHANNELS 3 Zrotation Yrotation Xrotation
                                        End Site
                                        {
                                            OFFSET -0.053032 -0.107703 -0.002821
                                        }
                                    }
                                }
                            }
                            JOINT RightHandLittle1
                            {
                                OFFSET -0.689403 -0.053298 -0.308303
                                CHANNELS 3 Zrotation Yrotation Xrotation
                                JOINT RightHandLittle2
                                {
                                    OFFSET -0.175354 -0.075522 -0.040033
                                    CHANNELS 3 Zrotation Yrotation Xrotation
                                    JOINT RightHandLittle3
                                    {
                                        OFFSET -0.081270 -0.086376 -0.020735
                                        CHANNELS 3 Zrotation Yrotation Xrotation
                                        End Site
                                        {
                                            OFFSET -0.102810 -0.158268 -0.025883
                                        }
                                    }
                                }
                            }
                        }
                    }
                }
            }
        }
    }
    JOINT LeftHip
    {
        OFFSET 0.685143 0.673822 -0.044491
        CHANNELS 3 Zrotation Yrotation Xrotation
        JOINT LeftKnee
        {
            OFFSET 0.085364 -3.750208 0.017676
            CHANNELS 3 Zrotation Yrotation Xrotation
            JOINT LeftAnkle
            {
                OFFSET 0.094583 -4.155206 0.019585
                CHANNELS 3 Zrotation Yrotation Xrotation
                JOINT LeftToe
                {
                    OFFSET -0.000000 -0.395925 0.621478
                    CHANNELS 3 Zrotation Yrotation Xrotation
                    End Site
                    {
                        OFFSET -0.000000 -0.077878 0.321152
                    }
                }
            }
        }
    }
    JOINT RightHip
    {
        OFFSET -0.685143 0.673822 -0.044492
        CHANNELS 3 Zrotation Yrotation Xrotation
        JOINT RightKnee
        {
            OFFSET -0.085364 -3.750208 0.017677
            CHANNELS 3 Zrotation Yrotation Xrotation
            JOINT RightAnkle
            {
                OFFSET -0.094583 -4.155206 0.019585
                CHANNELS 3 Zrotation Yrotation Xrotation
                JOINT RightToe
                {
                    OFFSET -0.000000 -0.395925 0.621478
                    CHANNELS 3 Zrotation Yrotation Xrotation
                    End Site
                    {
                        OFFSET -0.000000 -0.077878 0.321152
                    }
                }
            }
        }
    }
}
MOTION
Frames: 5
Frame Time: 0.033333
-3.010358 4.032057 -17.629370 -2.683989 -84.515266 14.064616 -0.561970 -0.683429 -4.796280 0.683992 0.054356 -3.701474 12.282238 -19.157217 -3.734726 2.425769 -39.424183 -5.144462 -13.000122 -9.590151 -0.031416 -64.074341 -32.845737 16.273996 0.000001 -0.000004 0.000000 22.264536 1.182807 -22.849985 -0.000007 0.000006 -0.000001 6.524767 -18.190292 13.841030 4.679381 -7.349946 -5.727099 23.010126 -12.756538 -11.796250 17.827866 -2.512148 -2.748739 16.686808 4.369159 -2.413339 18.807600 -7.748186 -4.687004 16.860538 -2.459526 -1.611505 17.267067 -2.758294 0.538421 16.188269 3.252543 1.262090 16.664337 -4.230375 -0.998389 16.463615 -4.192532 1.230107 16.867680 11.527162 7.570525 16.440220 -1.552445 -1.183947 17.948065 -7.176534 0.808807 13.155585 7.172069 -0.027496 58.121025 24.272917 2.912679 -0.000003 -0.000001 0.000000 -18.484097 -0.323760 -13.741284 0.000009 -0.000001 -0.000001 -2.386713 -1.029154 -24.162800 -6.163160 7.563981 -3.606941 -23.009958 12.754603 -11.798849 -16.887920 -6.107746 -1.935750 -17.360605 0.855211 -2.176941 -18.807650 7.748557 -4.685988 -16.454878 -4.589861 -0.007330 -16.566484 -4.924003 -2.195943 -16.188278 -3.252483 1.262259 -16.855072 -2.375629 2.739381 -16.915525 -2.342291 0.520612 -16.867659 -11.527180 7.570494 -14.923175 3.131478 6.031772 -18.805807 -1.525932 4.720158 12.721389 -2.721563 -80.376541 2.124918 1.013118 129.019989 -4.120664 -5.262356 -66.230820 0.000012 0.000049 0.000004 -31.574810 3.320261 -62.907780 -2.010427 -1.096075 122.807884 2.188614 -1.341013 -74.322166 -0.000007 -0.000021 0.000015
-2.866434 3.681428 -17.638420 -2.224610 -84.409630 15.261847 -0.508688 -0.726839 -6.602586 0.858688 0.045081 -3.602871 11.097668 -19.212761 -3.333120 2.431120 -39.486061 -4.417566 -11.987859 -9.783854 -0.036379 -60.070866 -24.287169 16.123869 0.067363 -24.943310 -0.311913 22.105364 1.547685 -23.848536 0.000009 0.000007 0.000002 6.524766 -18.190294 13.841026 4.679376 -7.349949 -5.727103 23.010120 -12.756530 -11.796256 17.827864 -2.512149 -2.748736 16.686806 4.369159 -2.413339 18.807606 -7.748179 -4.687009 16.860535 -2.459526 -1.611505 17.267071 -2.758291 0.538421 16.188276 3.252546 1.262087 16.664333 -4.230373 -0.998395 16.463612 -4.192534 1.230112 16.867680 11.527158 7.570510 16.440214 -1.552448 -1.183949 17.948061 -7.176534 0.808809 12.075929 7.383938 -0.023984 55.981682 11.209211 2.209437 -0.117647 31.955736 -0.418188 -22.027308 -0.577886 -14.027522 -0.000002 0.000000 0.000006 -2.386715 -1.029161 -24.162802 -6.163155 7.563984 -3.606945 -23.009966 12.754605 -11.798840 -16.887920 -6.107747 -1.935754 -17.360605 0.855211 -2.176936 -18.807663 7.748557 -4.685982 -16.454876 -4.589861 -0.007331 -16.566481 -4.924004 -2.195947 -16.188292 -3.252475 1.262269 -16.855068 -2.375635 2.739384 -16.915525 -2.342293 0.520612 -16.867668 -11.527176 7.570495 -14.923171 3.131478 6.031775 -18.805809 -1.525932 4.720160 14.556069 -2.749556 -87.781662 2.218411 0.929607 134.530502 -4.496456 -4.796801 -67.360855 0.000020 0.000079 0.000012 -35.040585 3.389972 -67.840828 -2.103743 -1.029966 127.834412 2.659491 -0.539907 -76.260620 0.000000 -0.000015 0.000015
-2.735824 3.316631 -17.646933 -1.824511 -84.317848 16.276594 -0.456202 -0.751991 -8.169747 1.021377 0.033376 -3.526151 10.094568 -19.232975 -3.071944 2.432662 -39.503902 -3.945497 -10.252459 -9.813232 -0.039995 -50.834743 -18.862808 12.959449 0.222643 -41.559689 -0.594063 35.972458 7.608347 -29.686977 -0.000002 -0.000002 -0.000008 5.992687 -15.634544 14.001976 2.475350 -2.870955 -2.957536 15.653668 -11.287112 -10.752974 11.260586 -2.021096 -2.648373 10.767122 3.262819 -1.185344 12.432692 -6.883331 -4.585166 10.712847 -1.750510 -1.758817 11.125358 -2.112428 -0.269011 10.276505 3.064342 1.383765 10.657186 -2.613986 -1.353911 10.630970 -2.872828 0.271140 10.664932 10.337581 7.339535 10.722711 -0.258521 -0.775110 11.616221 -4.561519 -0.123909 10.435259 7.898786 -0.022232 52.223961 6.938460 1.634246 -0.356947 49.442642 -0.782615 -32.027317 -3.144806 -27.245058 -0.000007 -0.000000 0.000003 -0.786743 -1.611601 -22.226513 -2.307830 4.043376 -1.119863 -15.653648 11.285233 -10.755371 -10.911752 -4.151856 -0.450296 -11.145599 1.157642 -1.883708 -12.432740 6.883749 -4.584238 -10.533799 -3.054739 0.659437 -10.721544 -3.457697 -0.867313 -10.276514 -3.064277 1.383924 -10.662711 -1.494538 2.521455 -10.859064 -1.739056 0.913267 -10.664927 -10.337591 7.339537 -9.516281 2.619277 4.058980 -11.849347 -1.164517 3.846557 16.941521 -2.747210 -95.460732 2.303452 0.837499 140.041016 -4.928932 -4.567964 -67.485748 -0.000008 -0.000035 -0.000004 -39.256088 3.444903 -72.311073 -2.187801 -0.958805 132.675430 3.547856 1.081698 -78.237862 0.000005 -0.000004 0.000002
-2.623057 2.990700 -17.654751 -1.509682 -84.245415 17.081738 -0.401804 -0.758789 -9.428666 1.167011 0.020583 -3.495785 9.320148 -19.226582 -2.922654 2.431920 -39.495338 -3.677579 -8.466834 -9.656322 -0.041747 -44.599369 -15.653027 2.801827 0.340609 -48.644451 -0.760921 47.113499 11.651466 -32.999329 -0.000007 0.000009 0.000008 4.910131 -9.274734 14.406061 -2.057172 8.584992 3.578484 -2.617026 -7.508448 -8.148908 -5.069038 -0.358865 -2.089694 -4.142636 0.651111 2.103608 -3.461298 -4.640490 -4.329278 -4.605294 0.163375 -1.952430 -4.300936 -0.529212 -2.167443 -4.505428 2.662690 1.697420 -4.371988 1.279117 -2.383572 -4.063560 0.216295 -2.287234 -4.822285 7.434284 6.788584 -3.688747 2.610008 -0.142937 -4.397393 1.576842 -3.085736 8.510387 8.463318 -0.021996 46.053314 6.537428 0.267423 -0.649939 59.617744 -1.141750 -45.811039 -8.282958 -29.731449 -0.000003 0.000006 -0.000003 3.267212 -3.197822 -17.634127 6.717713 -5.523230 3.718844 2.616781 7.506773 -8.150758 4.239065 0.370261 3.500163 4.433952 1.314380 -0.799570 3.461247 4.641067 -4.328597 4.309426 0.651189 2.479580 4.055783 -0.069272 2.663730 4.505406 -2.662609 1.697551 4.714808 0.864763 1.830319 4.308044 -0.166637 1.773403 4.822259 -7.434287 6.788651 4.000719 1.669480 -1.216667 5.387500 0.381774 1.357417 19.714514 -2.715818 -102.780106 2.368993 0.752396 144.762115 -5.273717 -4.869405 -66.480713 -0.000001 -0.000002 0.000005 -43.693493 3.486553 -75.983940 -2.252473 -0.894877 136.672134 3.617613 1.784354 -79.825859 -0.000005 -0.000054 0.000036
-2.532636 2.756671 -17.661701 -1.302668 -84.197914 17.646654 -0.342457 -0.747827 -10.309992 1.289964 0.008419 -3.536082 8.820836 -19.199514 -2.855711 2.430017 -39.473316 -3.562119 -7.159765 -8.882358 -0.040456 -46.087124 -9.010040 -8.655055 0.760629 -62.185089 -1.268594 49.615643 0.353104 -21.632698 -0.000015 0.000003 0.000005 4.013356 -1.098821 15.025419 -6.089598 23.766459 11.910485 -26.106384 -2.377411 -4.808288 -26.014029 2.856895 -0.965231 -23.801565 -2.295624 6.769080 -24.027233 -1.553380 -4.030848 -24.369682 3.030397 -1.912457 -24.486956 1.521109 -4.376753 -23.728060 2.287674 2.091139 -23.973736 5.957795 -3.944195 -23.437243 3.700424 -5.861650 -24.921131 3.811629 6.084340 -22.705545 5.388865 0.032627 -25.862326 8.346039 -8.105851 6.798532 8.446152 -0.020908 45.792355 5.133852 -10.286866 -1.108913 67.958771 -1.652556 -47.788383 -1.924421 -23.656982 -0.000007 0.000004 0.000006 8.650758 -5.510529 -12.229465 17.804163 -19.101774 7.128616 26.105980 2.376022 -4.809313 24.443134 5.315152 8.989097 24.686552 0.096095 1.013970 24.027182 1.554125 -4.030502 23.736813 5.109211 5.108478 23.658131 3.624740 7.578163 23.728046 -2.287578 2.091217 24.445541 4.324839 0.696891 24.059078 2.071945 2.675928 24.921097 -3.811626 6.084466 21.561855 1.273413 -8.631507 27.352556 3.856587 -2.152416 22.312317 -2.671213 -108.723381 2.409648 0.691263 147.988312 -5.528529 -5.697495 -64.490379 0.000003 0.000017 0.000001 -47.395603 3.517852 -78.680504 -2.293281 -0.849550 139.352280 2.462193 0.796287 -80.655762 0.000010 0.000038 -0.000035
